<?xml version="1.0" encoding="UTF-8"?>
<svg version="1.1" xmlns="http://www.w3.org/2000/svg" width="500" height="500">
<path d="M0 0 C165 0 330 0 500 0 C500 165 500 330 500 500 C335 500 170 500 0 500 C0 335 0 170 0 0 Z " fill="#06122A" transform="translate(0,0)"/>
<path d="M0 0 C11.94584135 8.3852643 18.51695577 22.30899664 21.04858398 36.40283203 C22.12252066 43.02350134 22.28931898 49.48771584 22.265625 56.18359375 C22.26753845 57.40095718 22.2694519 58.61832062 22.27142334 59.87257385 C22.27277554 62.42978117 22.2691471 64.98699559 22.26074219 67.54418945 C22.25003863 71.42349926 22.26066616 75.30234507 22.2734375 79.18164062 C22.27211555 81.68229267 22.26955243 84.18294444 22.265625 86.68359375 C22.26967346 87.82565781 22.27372192 88.96772186 22.27789307 90.14439392 C22.17250127 108.5580749 18.39795509 126.41003947 5.78515625 140.46875 C-5.76617369 151.70180991 -19.50618856 155.39679603 -35.12353516 155.37109375 C-48.00276874 155.05091392 -58.83938503 150.58914528 -67.8125 141.3125 C-71.13745979 137.34102025 -72.68075149 133.14069532 -74.17578125 128.22265625 C-74.77619474 125.82726439 -74.77619474 125.82726439 -77 125 C-76.75552124 126.75364868 -76.75552124 126.75364868 -76.50610352 128.54272461 C-75.74351662 135.45039497 -75.87618777 142.37747117 -75.90234375 149.31640625 C-75.90421239 150.78327893 -75.90563419 152.25015223 -75.90663147 153.71702576 C-75.91042152 157.54905975 -75.92022118 161.38105492 -75.93133545 165.21307373 C-75.94343982 169.82627816 -75.94796855 174.43949568 -75.95378876 179.05271149 C-75.96343533 186.03516787 -75.98261628 193.01753931 -76 200 C-88.21 200 -100.42 200 -113 200 C-113 131.69 -113 63.38 -113 -7 C-101.12 -7 -89.24 -7 -77 -7 C-77 1.91 -77 10.82 -77 20 C-76.34 20 -75.68 20 -75 20 C-74.85304687 19.45472656 -74.70609375 18.90945312 -74.5546875 18.34765625 C-71.65298855 8.59194425 -66.81754668 1.27118421 -58 -4 C-38.886863 -14.14234766 -17.90072877 -11.59765526 0 0 Z " fill="#F9C816" transform="translate(297,175)"/>
<path d="M0 0 C0 11.22 0 22.44 0 34 C-2.33964844 35.01835937 -4.67929688 36.03671875 -7.08984375 37.0859375 C-9.50263263 38.13661093 -11.91532572 39.18750402 -14.32800293 40.23843384 C-16.06744146 40.9960461 -17.80694341 41.75351278 -19.54650879 42.51083374 C-29.81843434 46.9832088 -40.08310017 51.47124671 -50.33203125 55.99609375 C-52.17780545 56.81008196 -54.02358983 57.62404708 -55.86938477 58.43798828 C-58.53716289 59.61453699 -61.20438022 60.79227355 -63.86984253 61.97406006 C-94.44067011 75.52796649 -94.44067011 75.52796649 -105 75 C-105 75.99 -105 76.98 -105 78 C-104.36578125 77.979375 -103.7315625 77.95875 -103.078125 77.9375 C-85.27849049 78.33086209 -67.91176788 89.23667925 -52.03515625 96.55712891 C-39.14164621 102.50154951 -26.1818195 108.2883146 -13.19921875 114.03515625 C-12.46188004 114.36161636 -11.72454132 114.68807648 -10.96485901 115.02442932 C-9.58405351 115.6354976 -8.2029945 116.24599345 -6.82164001 116.8558197 C-2.21670274 118.89164863 -2.21670274 118.89164863 0 120 C0 131.22 0 142.44 0 154 C-6.0341282 151.58634872 -11.96140203 149.18428029 -17.83984375 146.453125 C-18.55134079 146.12515427 -19.26283783 145.79718353 -19.99589539 145.45927429 C-21.51894682 144.75689026 -23.04148361 144.05338931 -24.5635376 143.34884644 C-27.83662026 141.83382024 -31.11228198 140.32440661 -34.38775635 138.81455994 C-36.08560047 138.03185433 -37.78331284 137.24886286 -39.480896 136.46559143 C-47.13908007 132.9326096 -54.80712378 129.42144451 -62.47875977 125.91778564 C-64.62602738 124.93703075 -66.77300905 123.95565236 -68.91992188 122.97412109 C-75.65841284 119.89390274 -82.39859333 116.81745538 -89.14227295 113.74861145 C-92.31230702 112.30572418 -95.48159665 110.86120604 -98.65081787 109.41653442 C-100.14723098 108.7349505 -101.64400271 108.05415325 -103.14117432 107.37423706 C-105.22915265 106.42598138 -107.31585387 105.47496295 -109.40234375 104.5234375 C-110.58304443 103.98638184 -111.76374512 103.44932617 -112.98022461 102.89599609 C-118.36467466 100.35632776 -123.6751738 97.6624131 -129 95 C-129 82.79 -129 70.58 -129 58 C-124.400625 55.916875 -119.80125 53.83375 -115.0625 51.6875 C-101.88745972 45.70825907 -88.74738112 39.65636136 -75.625 33.5625 C-57.11632614 24.96893889 -38.58031617 16.43761996 -20 8 C-18.94006836 7.51837402 -17.88013672 7.03674805 -16.78808594 6.54052734 C-14.17351074 5.35517667 -11.55648606 4.17556606 -8.9375 3 C-8.22924072 2.67942627 -7.52098145 2.35885254 -6.79125977 2.02856445 C-2.23538076 0 -2.23538076 0 0 0 Z " fill="#F84C86" transform="translate(141,155)"/>
<path d="M0 0 C13.73725142 5.72385476 13.73725142 5.72385476 20 8.64453125 C21.46001637 9.31988032 22.92005986 9.99517076 24.38012695 10.67041016 C25.50772934 11.19335663 25.50772934 11.19335663 26.65811157 11.72686768 C40.15577327 17.98399661 53.70157022 24.11857159 67.3125 30.125 C79.10205539 35.33206437 90.83244638 40.64969071 102.5 46.125 C103.15368561 46.43133362 103.80737122 46.73766724 104.48086548 47.05328369 C112.71772613 50.91815626 120.85826244 54.92913122 129 59 C129 70.88 129 82.76 129 95 C110.55824884 104.22087558 110.55824884 104.22087558 101.64160156 108.22216797 C98.15746107 109.78862233 94.67612963 111.36116767 91.19577026 112.93600464 C89.70498754 113.61045927 88.21404024 114.28455023 86.72293091 114.95828247 C79.44289286 118.24811807 72.17494257 121.5641586 64.90997314 124.88711548 C62.75060255 125.87472442 60.59089252 126.86158824 58.43115234 127.84838867 C50.56300404 131.44507227 42.70224594 135.05739508 34.84765625 138.68359375 C33.1546448 139.46440406 31.46161115 140.24516621 29.76855469 141.02587891 C26.53727632 142.51590899 23.30772311 144.00959452 20.07910156 145.50537109 C18.60097782 146.18731833 17.12279092 146.8691287 15.64453125 147.55078125 C14.98767838 147.85632431 14.3308255 148.16186737 13.65406799 148.47666931 C9.14678078 150.54979829 4.67441456 152.24709454 0 154 C0 142.78 0 131.56 0 120 C2.80757813 118.75347656 5.61515625 117.50695312 8.5078125 116.22265625 C10.36354943 115.39841023 12.21926513 114.57411642 14.07495117 113.74975586 C18.13463907 111.94634794 22.19477148 110.14394532 26.25512695 108.34204102 C36.21523744 103.91967744 46.16797507 99.48250541 56.09765625 94.9921875 C57.82076113 94.21467449 59.54390474 93.4372473 61.26708984 92.65991211 C63.70331739 91.5608412 66.13853641 90.45981107 68.57061768 89.35159302 C76.56561501 85.70873069 84.4380816 82.12180727 93 80 C94.05368774 79.7215625 94.05368774 79.7215625 95.12866211 79.4375 C97.22725137 78.94687091 99.09812465 78.90163541 101.25 78.9375 C103.10625 78.9684375 103.10625 78.9684375 105 79 C105 78.01 105 77.02 105 76 C104.3915625 75.99742187 103.783125 75.99484375 103.15625 75.9921875 C97.31898705 75.73466119 92.19803183 74.57441998 86.765625 72.46875 C86.07635925 72.2054892 85.38709351 71.94222839 84.67694092 71.67098999 C76.05559083 68.32159391 67.6604501 64.46566062 59.25 60.625 C56.63384723 59.43740964 54.01681489 58.25177348 51.39968872 57.06632996 C49.61548555 56.25812929 47.83153008 55.44938158 46.04782104 54.64009094 C36.59627882 50.35467883 27.1126815 46.14215223 17.625 41.9375 C15.33264752 40.92151344 13.04032044 39.90547052 10.74819946 38.88896179 C9.39700333 38.28983383 8.04559608 37.69118167 6.69393921 37.09309387 C4.44369434 36.09572594 2.20186677 35.10093339 0 34 C0 22.78 0 11.56 0 0 Z " fill="#7DC338" transform="translate(359,155)"/>
<path d="M0 0 C5.953833 4.96354029 9.3737455 12.25855172 10.3821106 19.89300537 C10.54127953 23.05757528 10.58079867 26.19866285 10.56640625 29.3671875 C10.57260483 30.52316437 10.57880341 31.67914124 10.58518982 32.87014771 C10.59225687 35.30225793 10.58916889 37.73441685 10.57641602 40.16650391 C10.56256373 43.85801594 10.59665778 47.54698305 10.63476562 51.23828125 C10.63571715 53.61458395 10.63385622 55.99088977 10.62890625 58.3671875 C10.64216446 59.45506561 10.65542267 60.54294373 10.66908264 61.66378784 C10.54819943 71.77125577 7.67795685 80.31041487 1 88 C-0.96484375 89.51171875 -0.96484375 89.51171875 -2.9375 90.6875 C-3.58589844 91.08324219 -4.23429687 91.47898437 -4.90234375 91.88671875 C-13.28875409 96.33760692 -23.72467642 96.4706484 -32.93359375 94.3125 C-35.15700935 93.38768242 -37.01846454 92.36363731 -39 91 C-39.63035156 90.5875 -40.26070312 90.175 -40.91015625 89.75 C-46.86591414 85.29898773 -49.694147 78.917559 -52 72 C-52.1076056 70.2587528 -52.15873761 68.51376044 -52.17700195 66.76928711 C-52.18983719 65.70064926 -52.20267242 64.63201141 -52.21589661 63.5309906 C-52.22328354 62.37478714 -52.23067047 61.21858368 -52.23828125 60.02734375 C-52.246353 58.83452286 -52.25442474 57.64170197 -52.26274109 56.41273499 C-52.27658387 53.88332574 -52.28730515 51.3538978 -52.29516602 48.82446289 C-52.31232381 44.97700941 -52.3562037 41.13042747 -52.40039062 37.28320312 C-52.41052258 34.82292297 -52.4190371 32.36263552 -52.42578125 29.90234375 C-52.44328934 28.76030991 -52.46079742 27.61827606 -52.47883606 26.44163513 C-52.45308928 16.84278329 -50.38590645 8.68747071 -43.70703125 1.53515625 C-31.71286202 -9.25136207 -12.89515295 -9.24596817 0 0 Z " fill="#071229" transform="translate(273,203)"/>
</svg>
